<svg width="430" height="99" viewBox="0 0 430 99" fill="none" xmlns="http://www.w3.org/2000/svg">
<path d="M22.2024 72.72C18.5064 72.72 15.1704 71.904 12.1944 70.272C9.26641 68.64 6.96241 66.408 5.28241 63.576C3.60241 60.744 2.76241 57.552 2.76241 54C2.76241 50.448 3.60241 47.256 5.28241 44.424C6.96241 41.592 9.26641 39.36 12.1944 37.728C15.1704 36.096 18.5064 35.28 22.2024 35.28C25.4664 35.28 28.4184 35.952 31.0584 37.296C33.7464 38.592 35.9064 40.416 37.5384 42.768C39.2184 45.072 40.2024 47.64 40.4904 50.472H30.5544C30.0264 48.648 29.0184 47.16 27.5304 46.008C26.0424 44.856 24.2664 44.28 22.2024 44.28C20.3784 44.28 18.7464 44.712 17.3064 45.576C15.9144 46.392 14.8104 47.544 13.9944 49.032C13.1784 50.52 12.7704 52.176 12.7704 54C12.7704 55.824 13.1784 57.48 13.9944 58.968C14.8104 60.408 15.9144 61.56 17.3064 62.424C18.7464 63.24 20.3784 63.648 22.2024 63.648C24.2664 63.648 26.0424 63.072 27.5304 61.92C29.0184 60.768 30.0264 59.28 30.5544 57.456H40.4904C40.2024 60.336 39.2184 62.952 37.5384 65.304C35.9064 67.608 33.7464 69.432 31.0584 70.776C28.4184 72.072 25.4664 72.72 22.2024 72.72ZM51.8417 72.864C48.6257 72.864 46.0337 72.096 44.0657 70.56C42.0977 68.976 41.1137 66.744 41.1137 63.864C41.1137 61.08 42.0257 58.92 43.8497 57.384C45.7217 55.848 47.8817 54.792 50.3297 54.216C52.8257 53.64 55.6337 53.208 58.7537 52.92C61.2017 52.776 63.0977 52.464 64.4417 51.984C65.8337 51.504 66.5297 50.592 66.5297 49.248C66.5297 47.328 65.8577 45.864 64.5137 44.856C63.2177 43.8 61.6337 43.272 59.7617 43.272C57.5537 43.272 55.7537 43.872 54.3617 45.072C52.9697 46.272 52.1537 47.952 51.9137 50.112H42.6257C42.7697 46.992 43.6337 44.328 45.2177 42.12C46.8017 39.864 48.8657 38.16 51.4097 37.008C54.0017 35.856 56.8337 35.28 59.9057 35.28C62.9777 35.28 65.7137 35.856 68.1137 37.008C70.5137 38.16 72.3857 39.84 73.7297 42.048C75.0737 44.256 75.7457 46.896 75.7457 49.968V63.216H79.9217V72H66.6017V59.04C65.7857 63.072 64.1057 66.384 61.5617 68.976C59.0657 71.568 55.8257 72.864 51.8417 72.864ZM56.8097 65.088C58.5377 65.088 60.1457 64.584 61.6337 63.576C63.1217 62.568 64.2977 61.272 65.1617 59.688C66.0737 58.056 66.5297 56.328 66.5297 54.504L66.6017 52.272C66.0257 52.8 65.3057 53.184 64.4417 53.424C63.6257 53.664 62.4737 53.904 60.9857 54.144C60.8897 54.144 60.7937 54.168 60.6977 54.216C60.6017 54.216 60.5297 54.216 60.4817 54.216C57.4577 54.504 55.1777 55.128 53.6417 56.088C52.1057 57 51.3377 58.392 51.3377 60.264C51.3377 61.896 51.8417 63.12 52.8497 63.936C53.8577 64.704 55.1777 65.088 56.8097 65.088ZM83.8451 86.4V36H93.8531V48.528C94.7171 44.544 96.3491 41.352 98.7491 38.952C101.149 36.504 104.005 35.28 107.317 35.28C110.149 35.28 112.693 36.096 114.949 37.728C117.253 39.36 119.053 41.616 120.349 44.496C121.693 47.328 122.365 50.496 122.365 54C122.365 57.504 121.693 60.696 120.349 63.576C119.053 66.408 117.253 68.64 114.949 70.272C112.693 71.904 110.149 72.72 107.317 72.72C104.005 72.72 101.149 71.52 98.7491 69.12C96.3491 66.672 94.7171 63.456 93.8531 59.472V86.4H83.8451ZM102.853 63.432C104.581 63.432 106.141 63.024 107.533 62.208C108.973 61.392 110.101 60.264 110.917 58.824C111.733 57.384 112.141 55.776 112.141 54C112.141 52.224 111.733 50.616 110.917 49.176C110.101 47.736 108.973 46.608 107.533 45.792C106.141 44.928 104.581 44.496 102.853 44.496C101.125 44.496 99.5411 44.928 98.1011 45.792C96.7091 46.608 95.6051 47.736 94.7891 49.176C94.0211 50.616 93.6371 52.224 93.6371 54C93.6371 55.776 94.0211 57.384 94.7891 58.824C95.6051 60.264 96.7091 61.392 98.1011 62.208C99.5411 63.024 101.125 63.432 102.853 63.432ZM126.634 72V36H136.642V72H126.634ZM131.314 31.896L125.338 18.36H138.082L132.034 31.896H131.314ZM161.319 72.72C156.615 72.72 153.135 71.712 150.879 69.696C148.623 67.632 147.495 64.632 147.495 60.696V45H139.359V36H144.111C145.599 36 146.727 35.616 147.495 34.848C148.263 34.032 148.647 32.904 148.647 31.464V27.36H157.503V36H170.463V45H157.503V58.176C157.503 60.048 157.983 61.392 158.943 62.208C159.903 63.024 161.463 63.432 163.623 63.432C165.543 63.432 167.823 63.216 170.463 62.784V71.784C169.023 72.024 167.463 72.24 165.783 72.432C164.103 72.624 162.615 72.72 161.319 72.72ZM182.077 72.864C178.861 72.864 176.269 72.096 174.301 70.56C172.333 68.976 171.349 66.744 171.349 63.864C171.349 61.08 172.261 58.92 174.085 57.384C175.957 55.848 178.117 54.792 180.565 54.216C183.061 53.64 185.869 53.208 188.989 52.92C191.437 52.776 193.333 52.464 194.677 51.984C196.069 51.504 196.765 50.592 196.765 49.248C196.765 47.328 196.093 45.864 194.749 44.856C193.453 43.8 191.869 43.272 189.997 43.272C187.789 43.272 185.989 43.872 184.597 45.072C183.205 46.272 182.389 47.952 182.149 50.112H172.861C173.005 46.992 173.869 44.328 175.453 42.12C177.037 39.864 179.101 38.16 181.645 37.008C184.237 35.856 187.069 35.28 190.141 35.28C193.213 35.28 195.949 35.856 198.349 37.008C200.749 38.16 202.621 39.84 203.965 42.048C205.309 44.256 205.981 46.896 205.981 49.968V63.216H210.157V72H196.837V59.04C196.021 63.072 194.341 66.384 191.797 68.976C189.301 71.568 186.061 72.864 182.077 72.864ZM187.045 65.088C188.773 65.088 190.381 64.584 191.869 63.576C193.357 62.568 194.533 61.272 195.397 59.688C196.309 58.056 196.765 56.328 196.765 54.504L196.837 52.272C196.261 52.8 195.541 53.184 194.677 53.424C193.861 53.664 192.709 53.904 191.221 54.144C191.125 54.144 191.029 54.168 190.933 54.216C190.837 54.216 190.765 54.216 190.717 54.216C187.693 54.504 185.413 55.128 183.877 56.088C182.341 57 181.573 58.392 181.573 60.264C181.573 61.896 182.077 63.12 183.085 63.936C184.093 64.704 185.413 65.088 187.045 65.088ZM214.081 72V20.88H224.089V72H214.081Z" fill="white"/>
<path d="M283.518 72.72C279.822 72.72 276.486 71.904 273.51 70.272C270.582 68.64 268.278 66.408 266.598 63.576C264.918 60.744 264.078 57.552 264.078 54C264.078 50.448 264.918 47.256 266.598 44.424C268.278 41.592 270.582 39.36 273.51 37.728C276.486 36.096 279.822 35.28 283.518 35.28C286.782 35.28 289.734 35.952 292.374 37.296C295.062 38.592 297.222 40.416 298.854 42.768C300.534 45.072 301.518 47.64 301.806 50.472H291.87C291.342 48.648 290.334 47.16 288.846 46.008C287.358 44.856 285.582 44.28 283.518 44.28C281.694 44.28 280.062 44.712 278.622 45.576C277.23 46.392 276.126 47.544 275.31 49.032C274.494 50.52 274.086 52.176 274.086 54C274.086 55.824 274.494 57.48 275.31 58.968C276.126 60.408 277.23 61.56 278.622 62.424C280.062 63.24 281.694 63.648 283.518 63.648C285.582 63.648 287.358 63.072 288.846 61.92C290.334 60.768 291.342 59.28 291.87 57.456H301.806C301.518 60.336 300.534 62.952 298.854 65.304C297.222 67.608 295.062 69.432 292.374 70.776C289.734 72.072 286.782 72.72 283.518 72.72ZM325.89 72.72C322.146 72.72 318.762 71.904 315.738 70.272C312.762 68.64 310.41 66.408 308.682 63.576C307.002 60.696 306.162 57.504 306.162 54C306.162 50.448 307.002 47.256 308.682 44.424C310.41 41.592 312.762 39.36 315.738 37.728C318.762 36.096 322.146 35.28 325.89 35.28C329.586 35.28 332.922 36.096 335.898 37.728C338.922 39.36 341.298 41.616 343.026 44.496C344.754 47.328 345.618 50.496 345.618 54C345.618 57.504 344.754 60.696 343.026 63.576C341.298 66.408 338.922 68.64 335.898 70.272C332.922 71.904 329.586 72.72 325.89 72.72ZM325.89 63.432C327.618 63.432 329.202 63.024 330.642 62.208C332.082 61.392 333.21 60.264 334.026 58.824C334.89 57.384 335.322 55.776 335.322 54C335.322 52.224 334.89 50.616 334.026 49.176C333.21 47.736 332.082 46.608 330.642 45.792C329.202 44.928 327.618 44.496 325.89 44.496C324.114 44.496 322.506 44.928 321.066 45.792C319.626 46.608 318.474 47.736 317.61 49.176C316.794 50.616 316.386 52.224 316.386 54C316.386 55.776 316.794 57.384 317.61 58.824C318.474 60.264 319.626 61.392 321.066 62.208C322.506 63.024 324.114 63.432 325.89 63.432ZM352.749 72V36H362.757V48.312C363.381 44.664 364.749 41.592 366.861 39.096C369.021 36.552 371.805 35.28 375.213 35.28C377.661 35.28 379.677 35.808 381.261 36.864C382.893 37.92 384.069 39.456 384.789 41.472C385.557 43.488 385.941 45.984 385.941 48.96V52.416H375.933V50.976C375.933 48.96 375.405 47.424 374.349 46.368C373.341 45.264 371.949 44.712 370.173 44.712C368.733 44.712 367.461 45.096 366.357 45.864C365.253 46.584 364.365 47.616 363.693 48.96C363.069 50.304 362.757 51.768 362.757 53.352V72H352.749Z" fill="white"/>
<path d="M407.726 72.72C411.374 72.72 414.686 71.928 417.662 70.344C420.59 68.76 422.918 66.576 424.646 63.792C426.326 61.008 427.166 57.84 427.166 54.288C427.166 50.592 426.302 47.304 424.574 44.424C422.846 41.544 420.494 39.312 417.518 37.728C414.542 36.096 411.254 35.28 407.654 35.28C404.054 35.28 400.814 36.096 397.934 37.728C395.006 39.312 392.702 41.544 391.022 44.424C389.342 47.256 388.502 50.448 388.502 54C388.502 54.096 388.502 54.216 388.502 54.36C388.502 54.504 388.502 54.624 388.502 54.72H417.302C417.206 56.448 416.726 58.008 415.862 59.4C414.95 60.744 413.798 61.824 412.406 62.64C410.966 63.408 409.382 63.792 407.654 63.792C405.974 63.792 404.462 63.456 403.118 62.784C401.774 62.112 400.838 61.224 400.31 60.12H389.582C389.822 62.136 390.734 64.128 392.318 66.096C393.854 68.016 395.966 69.6 398.654 70.848C401.294 72.096 404.318 72.72 407.726 72.72ZM397.934 53.28C398.03 51.552 398.51 50.016 399.374 48.672C400.238 47.28 401.39 46.2 402.83 45.432C404.222 44.616 405.806 44.208 407.582 44.208C409.31 44.208 410.894 44.616 412.334 45.432C413.726 46.2 414.878 47.28 415.79 48.672C416.654 50.016 417.134 51.552 417.23 53.28H397.934Z" fill="white"/>
<path d="M241.295 56.944L241.871 50.544L236.943 54.96L232.527 53.68L233.743 49.264H241.359L231.951 46.384V41.968L236.047 40.88L241.679 47.6L238.479 38.576L242.511 35.184L246.543 38.576L243.343 47.6L248.975 40.88L253.071 41.968V46.384L243.599 49.264H251.215L252.431 53.68L248.079 54.96L243.087 50.544L243.663 56.944H241.295Z" fill="#6366F1"/>
</svg>
